<?xml version="1.0" encoding="UTF-8"?>
<svg version="1.1" xmlns="http://www.w3.org/2000/svg" width="1728" height="1728">
<path d="M0 0 C294.03 0 588.06 0 891 0 C891 8.91 891 17.82 891 27 C899.91 27 908.82 27 918 27 C918 35.91 918 44.82 918 54 C926.91 54 935.82 54 945 54 C945 196.56 945 339.12 945 486 C1051.92 486 1158.84 486 1269 486 C1269 494.91 1269 503.82 1269 513 C1277.91 513 1286.82 513 1296 513 C1296 521.91 1296 530.82 1296 540 C1304.91 540 1313.82 540 1323 540 C1323 548.91 1323 557.82 1323 567 C1331.91 567 1340.82 567 1350 567 C1350 932.31 1350 1297.62 1350 1674 C1341.09 1674 1332.18 1674 1323 1674 C1323 1682.91 1323 1691.82 1323 1701 C1314.09 1701 1305.18 1701 1296 1701 C1296 1709.91 1296 1718.82 1296 1728 C761.4 1728 226.8 1728 -324 1728 C-324 1719.09 -324 1710.18 -324 1701 C-332.91 1701 -341.82 1701 -351 1701 C-351 1692.09 -351 1683.18 -351 1674 C-359.91 1674 -368.82 1674 -378 1674 C-378 1308.69 -378 943.38 -378 567 C-369.09 567 -360.18 567 -351 567 C-351 558.09 -351 549.18 -351 540 C-342.09 540 -333.18 540 -324 540 C-324 531.09 -324 522.18 -324 513 C-217.08 513 -110.16 513 0 513 C0 343.71 0 174.42 0 0 Z M162 108 C162 241.65 162 375.3 162 513 C366.93 513 571.86 513 783 513 C783 379.35 783 245.7 783 108 C578.07 108 373.14 108 162 108 Z " fill="#000000" transform="translate(378,0)"/>
<path d="M0 0 C8.91 0 17.82 0 27 0 C27 8.91 27 17.82 27 27 C35.91 27 44.82 27 54 27 C54 35.91 54 44.82 54 54 C62.91 54 71.82 54 81 54 C81 196.56 81 339.12 81 486 C187.92 486 294.84 486 405 486 C405 494.91 405 503.82 405 513 C413.91 513 422.82 513 432 513 C432 521.91 432 530.82 432 540 C440.91 540 449.82 540 459 540 C459 548.91 459 557.82 459 567 C467.91 567 476.82 567 486 567 C486 932.31 486 1297.62 486 1674 C477.09 1674 468.18 1674 459 1674 C459 1682.91 459 1691.82 459 1701 C450.09 1701 441.18 1701 432 1701 C432 1709.91 432 1718.82 432 1728 C405.27 1728 378.54 1728 351 1728 C351 1719.09 351 1710.18 351 1701 C359.91 1701 368.82 1701 378 1701 C378 1692.09 378 1683.18 378 1674 C386.91 1674 395.82 1674 405 1674 C405 1308.69 405 943.38 405 567 C396.09 567 387.18 567 378 567 C378 558.09 378 549.18 378 540 C369.09 540 360.18 540 351 540 C351 531.09 351 522.18 351 513 C235.17 513 119.34 513 0 513 C0 343.71 0 174.42 0 0 Z " fill="#00FF00" transform="translate(1242,0)"/>
<path d="M0 0 C8.91 0 17.82 0 27 0 C27 8.91 27 17.82 27 27 C35.91 27 44.82 27 54 27 C54 35.91 54 44.82 54 54 C62.91 54 71.82 54 81 54 C81 62.91 81 71.82 81 81 C89.91 81 98.82 81 108 81 C108 98.82 108 116.64 108 135 C116.91 135 125.82 135 135 135 C135 188.46 135 241.92 135 297 C126.09 297 117.18 297 108 297 C108 305.91 108 314.82 108 324 C99.09 324 90.18 324 81 324 C81 332.91 81 341.82 81 351 C72.09 351 63.18 351 54 351 C54 359.91 54 368.82 54 378 C45.09 378 36.18 378 27 378 C27 386.91 27 395.82 27 405 C18.09 405 9.18 405 0 405 C0 413.91 0 422.82 0 432 C-8.91 432 -17.82 432 -27 432 C-27 503.28 -27 574.56 -27 648 C-44.82 648 -62.64 648 -81 648 C-81 541.08 -81 434.16 -81 324 C-72.09 324 -63.18 324 -54 324 C-54 332.91 -54 341.82 -54 351 C-45.09 351 -36.18 351 -27 351 C-27 359.91 -27 368.82 -27 378 C-18.09 378 -9.18 378 0 378 C0 253.26 0 128.52 0 0 Z " fill="#00FF00" transform="translate(864,756)"/>
<path d="M0 0 C8.91 0 17.82 0 27 0 C27 124.74 27 249.48 27 378 C35.91 378 44.82 378 54 378 C54 369.09 54 360.18 54 351 C62.91 351 71.82 351 81 351 C81 342.09 81 333.18 81 324 C89.91 324 98.82 324 108 324 C108 430.92 108 537.84 108 648 C90.18 648 72.36 648 54 648 C54 576.72 54 505.44 54 432 C45.09 432 36.18 432 27 432 C27 423.09 27 414.18 27 405 C18.09 405 9.18 405 0 405 C0 396.09 0 387.18 0 378 C-8.91 378 -17.82 378 -27 378 C-27 369.09 -27 360.18 -27 351 C-35.91 351 -44.82 351 -54 351 C-54 342.09 -54 333.18 -54 324 C-62.91 324 -71.82 324 -81 324 C-81 315.09 -81 306.18 -81 297 C-89.91 297 -98.82 297 -108 297 C-108 243.54 -108 190.08 -108 135 C-99.09 135 -90.18 135 -81 135 C-81 117.18 -81 99.36 -81 81 C-72.09 81 -63.18 81 -54 81 C-54 72.09 -54 63.18 -54 54 C-45.09 54 -36.18 54 -27 54 C-27 45.09 -27 36.18 -27 27 C-18.09 27 -9.18 27 0 27 C0 18.09 0 9.18 0 0 Z " fill="#00FF00" transform="translate(621,756)"/>
<path d="M0 0 C71.28 0 142.56 0 216 0 C216 8.91 216 17.82 216 27 C198.18 27 180.36 27 162 27 C162 116.1 162 205.2 162 297 C153.09 297 144.18 297 135 297 C135 288.09 135 279.18 135 270 C117.18 270 99.36 270 81 270 C81 278.91 81 287.82 81 297 C72.09 297 63.18 297 54 297 C54 207.9 54 118.8 54 27 C36.18 27 18.36 27 0 27 C0 18.09 0 9.18 0 0 Z " fill="#00FF00" transform="translate(648,729)"/>
<path d="M0 0 C26.73 0 53.46 0 81 0 C81 133.65 81 267.3 81 405 C54.27 405 27.54 405 0 405 C0 271.35 0 137.7 0 0 Z " fill="#00FF00" transform="translate(459,108)"/>
<path d="M0 0 C8.91 0 17.82 0 27 0 C27 8.91 27 17.82 27 27 C35.91 27 44.82 27 54 27 C54 35.91 54 44.82 54 54 C62.91 54 71.82 54 81 54 C81 62.91 81 71.82 81 81 C89.91 81 98.82 81 108 81 C108 89.91 108 98.82 108 108 C116.91 108 125.82 108 135 108 C135 116.91 135 125.82 135 135 C143.91 135 152.82 135 162 135 C162 143.91 162 152.82 162 162 C108.54 162 55.08 162 0 162 C0 108.54 0 55.08 0 0 Z " fill="#00FF00" transform="translate(864,1242)"/>
<path d="M0 0 C8.91 0 17.82 0 27 0 C27 53.46 27 106.92 27 162 C-26.46 162 -79.92 162 -135 162 C-135 153.09 -135 144.18 -135 135 C-126.09 135 -117.18 135 -108 135 C-108 126.09 -108 117.18 -108 108 C-99.09 108 -90.18 108 -81 108 C-81 99.09 -81 90.18 -81 81 C-72.09 81 -63.18 81 -54 81 C-54 72.09 -54 63.18 -54 54 C-45.09 54 -36.18 54 -27 54 C-27 45.09 -27 36.18 -27 27 C-18.09 27 -9.18 27 0 27 C0 18.09 0 9.18 0 0 Z " fill="#00FF00" transform="translate(621,1242)"/>
</svg>
